<svg xmlns="http://www.w3.org/2000/svg" width="470" height="470" viewBox="0 0 470 470"><rect width="100%" height="100%" fill="#DDDDDD"/><path fill="#999999" d="M101.035 240.605h13.86v-14.9q0-2.11.28-4.66l-14.14 19.56Zm20.63 0h5.73v4.51q0 .63-.4 1.08-.41.46-1.17.46h-4.16v11.12h-6.77v-11.12h-19.22q-.78 0-1.38-.49-.6-.49-.76-1.21l-.82-3.94 21.58-28.82h7.37v28.41Zm10.27-28.38h31.47v3.37q0 1.51-.32 2.44-.31.93-.63 1.56l-17.26 35.53q-.53 1.11-1.51 1.88-.98.77-2.61.77h-5.64l17.61-34.81q.59-1.07 1.18-1.97.58-.89 1.3-1.71h-21.79q-.73 0-1.26-.54-.54-.53-.54-1.26v-5.26Zm68.58 22.78q0 5.95-1.28 10.34-1.28 4.4-3.53 7.26-2.25 2.87-5.32 4.27-3.07 1.4-6.63 1.4t-6.6-1.4q-3.04-1.4-5.28-4.27-2.23-2.86-3.49-7.26-1.26-4.39-1.26-10.34 0-5.99 1.26-10.37 1.26-4.38 3.49-7.24 2.24-2.87 5.28-4.27 3.04-1.4 6.6-1.4 3.56 0 6.63 1.4t5.32 4.27q2.25 2.86 3.53 7.24 1.28 4.38 1.28 10.37Zm-8.04 0q0-4.95-.72-8.19-.73-3.25-1.94-5.17t-2.79-2.69q-1.57-.78-3.27-.78-1.67 0-3.23.78-1.56.77-2.76 2.69-1.19 1.92-1.9 5.17-.71 3.24-.71 8.19 0 4.94.71 8.19.71 3.24 1.9 5.16 1.2 1.92 2.76 2.69 1.56.78 3.23.78 1.7 0 3.27-.78 1.58-.77 2.79-2.69t1.94-5.16q.72-3.25.72-8.19Zm58.06 12.34-4.13 4.07-10.68-10.68-10.77 10.74-4.13-4.06 10.78-10.81-10.27-10.27 4.09-4.09 10.27 10.27 10.21-10.21 4.16 4.1-10.24 10.23 10.71 10.71Zm27.28-6.74h13.86v-14.9q0-2.11.28-4.66l-14.14 19.56Zm20.63 0h5.73v4.51q0 .63-.41 1.08-.41.46-1.16.46h-4.16v11.12h-6.77v-11.12h-19.22q-.79 0-1.38-.49-.6-.49-.76-1.21l-.82-3.94 21.58-28.82h7.37v28.41Zm10.27-28.38h31.47v3.37q0 1.51-.32 2.44-.31.93-.63 1.56l-17.26 35.53q-.54 1.11-1.51 1.88-.98.77-2.62.77h-5.63l17.6-34.81q.6-1.07 1.18-1.97.59-.89 1.31-1.71h-21.8q-.72 0-1.26-.54-.53-.53-.53-1.26v-5.26Zm68.57 22.78q0 5.95-1.27 10.34-1.28 4.4-3.53 7.26-2.25 2.87-5.32 4.27-3.07 1.4-6.63 1.4t-6.6-1.4q-3.04-1.4-5.28-4.27-2.24-2.86-3.5-7.26-1.26-4.39-1.26-10.34 0-5.99 1.26-10.37 1.26-4.38 3.5-7.24 2.24-2.87 5.28-4.27 3.04-1.4 6.6-1.4 3.56 0 6.63 1.4t5.32 4.27q2.25 2.86 3.53 7.24 1.27 4.38 1.27 10.37Zm-8.03 0q0-4.95-.72-8.19-.73-3.25-1.94-5.17t-2.79-2.69q-1.57-.78-3.27-.78-1.67 0-3.23.78-1.56.77-2.76 2.69-1.2 1.92-1.9 5.17-.71 3.24-.71 8.19 0 4.94.71 8.19.7 3.24 1.9 5.16t2.76 2.69q1.56.78 3.23.78 1.7 0 3.27-.78 1.58-.77 2.79-2.69t1.94-5.16q.72-3.25.72-8.19Z"/></svg>